<svg width="482" height="62" viewBox="0 0 482 62" fill="none" xmlns="http://www.w3.org/2000/svg">
<path d="M10.3125 2.5L19.8125 23.25L29.3125 2.5H39.5312L24.5625 31.4375V48H15.0625V31.4375L0.0625 2.5H10.3125ZM59.25 40.375V25.3125C59.25 24.2292 59.0729 23.3021 58.7188 22.5312C58.3646 21.7396 57.8125 21.125 57.0625 20.6875C56.3333 20.25 55.3854 20.0312 54.2188 20.0312C53.2188 20.0312 52.3542 20.2083 51.625 20.5625C50.8958 20.8958 50.3333 21.3854 49.9375 22.0312C49.5417 22.6562 49.3438 23.3958 49.3438 24.25H40.3438C40.3438 22.8125 40.6771 21.4479 41.3438 20.1562C42.0104 18.8646 42.9792 17.7292 44.25 16.75C45.5208 15.75 47.0312 14.9688 48.7812 14.4062C50.5521 13.8438 52.5312 13.5625 54.7188 13.5625C57.3438 13.5625 59.6771 14 61.7188 14.875C63.7604 15.75 65.3646 17.0625 66.5312 18.8125C67.7188 20.5625 68.3125 22.75 68.3125 25.375V39.8438C68.3125 41.6979 68.4271 43.2188 68.6562 44.4062C68.8854 45.5729 69.2188 46.5938 69.6562 47.4688V48H60.5625C60.125 47.0833 59.7917 45.9375 59.5625 44.5625C59.3542 43.1667 59.25 41.7708 59.25 40.375ZM60.4375 27.4062L60.5 32.5H55.4688C54.2812 32.5 53.25 32.6354 52.375 32.9062C51.5 33.1771 50.7812 33.5625 50.2188 34.0625C49.6562 34.5417 49.2396 35.1042 48.9688 35.75C48.7188 36.3958 48.5938 37.1042 48.5938 37.875C48.5938 38.6458 48.7708 39.3438 49.125 39.9688C49.4792 40.5729 49.9896 41.0521 50.6562 41.4062C51.3229 41.7396 52.1042 41.9062 53 41.9062C54.3542 41.9062 55.5312 41.6354 56.5312 41.0938C57.5312 40.5521 58.3021 39.8854 58.8438 39.0938C59.4062 38.3021 59.6979 37.5521 59.7188 36.8438L62.0938 40.6562C61.7604 41.5104 61.3021 42.3958 60.7188 43.3125C60.1562 44.2292 59.4375 45.0938 58.5625 45.9062C57.6875 46.6979 56.6354 47.3542 55.4062 47.875C54.1771 48.375 52.7188 48.625 51.0312 48.625C48.8854 48.625 46.9375 48.1979 45.1875 47.3438C43.4583 46.4688 42.0833 45.2708 41.0625 43.75C40.0625 42.2083 39.5625 40.4583 39.5625 38.5C39.5625 36.7292 39.8958 35.1562 40.5625 33.7812C41.2292 32.4062 42.2083 31.25 43.5 30.3125C44.8125 29.3542 46.4479 28.6354 48.4062 28.1562C50.3646 27.6562 52.6354 27.4062 55.2188 27.4062H60.4375ZM93.5312 38.6562C93.5312 38.0104 93.3438 37.4271 92.9688 36.9062C92.5938 36.3854 91.8958 35.9062 90.875 35.4688C89.875 35.0104 88.4271 34.5938 86.5312 34.2188C84.8229 33.8438 83.2292 33.375 81.75 32.8125C80.2917 32.2292 79.0208 31.5312 77.9375 30.7188C76.875 29.9062 76.0417 28.9479 75.4375 27.8438C74.8333 26.7188 74.5312 25.4375 74.5312 24C74.5312 22.5833 74.8333 21.25 75.4375 20C76.0625 18.75 76.9479 17.6458 78.0938 16.6875C79.2604 15.7083 80.6771 14.9479 82.3438 14.4062C84.0312 13.8438 85.9271 13.5625 88.0312 13.5625C90.9688 13.5625 93.4896 14.0312 95.5938 14.9688C97.7188 15.9062 99.3438 17.1979 100.469 18.8438C101.615 20.4688 102.188 22.3229 102.188 24.4062H93.1875C93.1875 23.5312 93 22.75 92.625 22.0625C92.2708 21.3542 91.7083 20.8021 90.9375 20.4062C90.1875 19.9896 89.2083 19.7812 88 19.7812C87 19.7812 86.1354 19.9583 85.4062 20.3125C84.6771 20.6458 84.1146 21.1042 83.7188 21.6875C83.3438 22.25 83.1562 22.875 83.1562 23.5625C83.1562 24.0833 83.2604 24.5521 83.4688 24.9688C83.6979 25.3646 84.0625 25.7292 84.5625 26.0625C85.0625 26.3958 85.7083 26.7083 86.5 27C87.3125 27.2708 88.3125 27.5208 89.5 27.75C91.9375 28.25 94.1146 28.9062 96.0312 29.7188C97.9479 30.5104 99.4688 31.5938 100.594 32.9688C101.719 34.3229 102.281 36.1042 102.281 38.3125C102.281 39.8125 101.948 41.1875 101.281 42.4375C100.615 43.6875 99.6562 44.7812 98.4062 45.7188C97.1562 46.6354 95.6562 47.3542 93.9062 47.875C92.1771 48.375 90.2292 48.625 88.0625 48.625C84.9167 48.625 82.25 48.0625 80.0625 46.9375C77.8958 45.8125 76.25 44.3854 75.125 42.6562C74.0208 40.9062 73.4688 39.1146 73.4688 37.2812H82C82.0417 38.5104 82.3542 39.5 82.9375 40.25C83.5417 41 84.3021 41.5417 85.2188 41.875C86.1562 42.2083 87.1667 42.375 88.25 42.375C89.4167 42.375 90.3854 42.2188 91.1562 41.9062C91.9271 41.5729 92.5104 41.1354 92.9062 40.5938C93.3229 40.0312 93.5312 39.3854 93.5312 38.6562ZM116.906 0V48H107.906V0H116.906ZM115.625 29.9062H113.156C113.177 27.5521 113.49 25.3854 114.094 23.4062C114.698 21.4062 115.562 19.6771 116.688 18.2188C117.812 16.7396 119.156 15.5938 120.719 14.7812C122.302 13.9688 124.052 13.5625 125.969 13.5625C127.635 13.5625 129.146 13.8021 130.5 14.2812C131.875 14.7396 133.052 15.4896 134.031 16.5312C135.031 17.5521 135.802 18.8958 136.344 20.5625C136.885 22.2292 137.156 24.25 137.156 26.625V48H128.094V26.5625C128.094 25.0625 127.875 23.8854 127.438 23.0312C127.021 22.1562 126.406 21.5417 125.594 21.1875C124.802 20.8125 123.823 20.625 122.656 20.625C121.365 20.625 120.26 20.8646 119.344 21.3438C118.448 21.8229 117.729 22.4896 117.188 23.3438C116.646 24.1771 116.25 25.1562 116 26.2812C115.75 27.4062 115.625 28.6146 115.625 29.9062Z" fill="#194276"/>
<path d="M158.531 48H148.625L148.688 40.6875H158.531C160.99 40.6875 163.062 40.1354 164.75 39.0312C166.438 37.9062 167.708 36.2708 168.562 34.125C169.438 31.9792 169.875 29.3854 169.875 26.3438V24.125C169.875 21.7917 169.625 19.7396 169.125 17.9688C168.646 16.1979 167.927 14.7083 166.969 13.5C166.01 12.2917 164.833 11.3854 163.438 10.7812C162.042 10.1562 160.438 9.84375 158.625 9.84375H148.438V2.5H158.625C161.667 2.5 164.448 3.02083 166.969 4.0625C169.51 5.08333 171.708 6.55208 173.562 8.46875C175.417 10.3854 176.844 12.6771 177.844 15.3438C178.865 17.9896 179.375 20.9375 179.375 24.1875V26.3438C179.375 29.5729 178.865 32.5208 177.844 35.1875C176.844 37.8542 175.417 40.1458 173.562 42.0625C171.729 43.9583 169.531 45.4271 166.969 46.4688C164.427 47.4896 161.615 48 158.531 48ZM153.938 2.5V48H144.562V2.5H153.938ZM194.625 21.5625V48H185.625V14.1875H194.094L194.625 21.5625ZM204.812 13.9688L204.656 22.3125C204.219 22.25 203.688 22.1979 203.062 22.1562C202.458 22.0938 201.906 22.0625 201.406 22.0625C200.135 22.0625 199.031 22.2292 198.094 22.5625C197.177 22.875 196.406 23.3438 195.781 23.9688C195.177 24.5938 194.719 25.3542 194.406 26.25C194.115 27.1458 193.948 28.1667 193.906 29.3125L192.094 28.75C192.094 26.5625 192.312 24.5521 192.75 22.7188C193.188 20.8646 193.823 19.25 194.656 17.875C195.51 16.5 196.552 15.4375 197.781 14.6875C199.01 13.9375 200.417 13.5625 202 13.5625C202.5 13.5625 203.01 13.6042 203.531 13.6875C204.052 13.75 204.479 13.8438 204.812 13.9688ZM219.656 44.1875L228.625 14.1875H238.281L224.688 53.0938C224.396 53.9479 224 54.8646 223.5 55.8438C223.021 56.8229 222.365 57.75 221.531 58.625C220.719 59.5208 219.688 60.25 218.438 60.8125C217.208 61.375 215.698 61.6562 213.906 61.6562C213.052 61.6562 212.354 61.6042 211.812 61.5C211.271 61.3958 210.625 61.25 209.875 61.0625V54.4688C210.104 54.4688 210.344 54.4688 210.594 54.4688C210.844 54.4896 211.083 54.5 211.312 54.5C212.5 54.5 213.469 54.3646 214.219 54.0938C214.969 53.8229 215.573 53.4062 216.031 52.8438C216.49 52.3021 216.854 51.5938 217.125 50.7188L219.656 44.1875ZM215.906 14.1875L223.25 38.6875L224.531 48.2188L218.406 48.875L206.25 14.1875H215.906ZM255.406 41.5938C256.51 41.5938 257.49 41.3854 258.344 40.9688C259.198 40.5312 259.865 39.9271 260.344 39.1562C260.844 38.3646 261.104 37.4375 261.125 36.375H269.594C269.573 38.75 268.938 40.8646 267.688 42.7188C266.438 44.5521 264.76 46 262.656 47.0625C260.552 48.1042 258.198 48.625 255.594 48.625C252.969 48.625 250.677 48.1875 248.719 47.3125C246.781 46.4375 245.167 45.2292 243.875 43.6875C242.583 42.125 241.615 40.3125 240.969 38.25C240.323 36.1667 240 33.9375 240 31.5625V30.6562C240 28.2604 240.323 26.0312 240.969 23.9688C241.615 21.8854 242.583 20.0729 243.875 18.5312C245.167 16.9688 246.781 15.75 248.719 14.875C250.656 14 252.927 13.5625 255.531 13.5625C258.302 13.5625 260.729 14.0938 262.812 15.1562C264.917 16.2188 266.562 17.7396 267.75 19.7188C268.958 21.6771 269.573 24 269.594 26.6875H261.125C261.104 25.5625 260.865 24.5417 260.406 23.625C259.969 22.7083 259.323 21.9792 258.469 21.4375C257.635 20.875 256.604 20.5938 255.375 20.5938C254.062 20.5938 252.99 20.875 252.156 21.4375C251.323 21.9792 250.677 22.7292 250.219 23.6875C249.76 24.625 249.438 25.6979 249.25 26.9062C249.083 28.0938 249 29.3438 249 30.6562V31.5625C249 32.875 249.083 34.1354 249.25 35.3438C249.417 36.5521 249.729 37.625 250.188 38.5625C250.667 39.5 251.323 40.2396 252.156 40.7812C252.99 41.3229 254.073 41.5938 255.406 41.5938ZM284.312 0V48H275.281V0H284.312ZM307.312 48.625C304.688 48.625 302.333 48.2083 300.25 47.375C298.167 46.5208 296.396 45.3438 294.938 43.8438C293.5 42.3438 292.396 40.6042 291.625 38.625C290.854 36.625 290.469 34.5 290.469 32.25V31C290.469 28.4375 290.833 26.0938 291.562 23.9688C292.292 21.8438 293.333 20 294.688 18.4375C296.062 16.875 297.729 15.6771 299.688 14.8438C301.646 13.9896 303.854 13.5625 306.312 13.5625C308.708 13.5625 310.833 13.9583 312.688 14.75C314.542 15.5417 316.094 16.6667 317.344 18.125C318.615 19.5833 319.573 21.3333 320.219 23.375C320.865 25.3958 321.188 27.6458 321.188 30.125V33.875H294.312V27.875H312.344V27.1875C312.344 25.9375 312.115 24.8229 311.656 23.8438C311.219 22.8438 310.552 22.0521 309.656 21.4688C308.76 20.8854 307.615 20.5938 306.219 20.5938C305.031 20.5938 304.01 20.8542 303.156 21.375C302.302 21.8958 301.604 22.625 301.062 23.5625C300.542 24.5 300.146 25.6042 299.875 26.875C299.625 28.125 299.5 29.5 299.5 31V32.25C299.5 33.6042 299.688 34.8542 300.062 36C300.458 37.1458 301.01 38.1354 301.719 38.9688C302.448 39.8021 303.323 40.4479 304.344 40.9062C305.385 41.3646 306.562 41.5938 307.875 41.5938C309.5 41.5938 311.01 41.2812 312.406 40.6562C313.823 40.0104 315.042 39.0417 316.062 37.75L320.438 42.5C319.729 43.5208 318.76 44.5 317.531 45.4375C316.323 46.375 314.865 47.1458 313.156 47.75C311.448 48.3333 309.5 48.625 307.312 48.625ZM344.562 40.375V25.3125C344.562 24.2292 344.385 23.3021 344.031 22.5312C343.677 21.7396 343.125 21.125 342.375 20.6875C341.646 20.25 340.698 20.0312 339.531 20.0312C338.531 20.0312 337.667 20.2083 336.938 20.5625C336.208 20.8958 335.646 21.3854 335.25 22.0312C334.854 22.6562 334.656 23.3958 334.656 24.25H325.656C325.656 22.8125 325.99 21.4479 326.656 20.1562C327.323 18.8646 328.292 17.7292 329.562 16.75C330.833 15.75 332.344 14.9688 334.094 14.4062C335.865 13.8438 337.844 13.5625 340.031 13.5625C342.656 13.5625 344.99 14 347.031 14.875C349.073 15.75 350.677 17.0625 351.844 18.8125C353.031 20.5625 353.625 22.75 353.625 25.375V39.8438C353.625 41.6979 353.74 43.2188 353.969 44.4062C354.198 45.5729 354.531 46.5938 354.969 47.4688V48H345.875C345.438 47.0833 345.104 45.9375 344.875 44.5625C344.667 43.1667 344.562 41.7708 344.562 40.375ZM345.75 27.4062L345.812 32.5H340.781C339.594 32.5 338.562 32.6354 337.688 32.9062C336.812 33.1771 336.094 33.5625 335.531 34.0625C334.969 34.5417 334.552 35.1042 334.281 35.75C334.031 36.3958 333.906 37.1042 333.906 37.875C333.906 38.6458 334.083 39.3438 334.438 39.9688C334.792 40.5729 335.302 41.0521 335.969 41.4062C336.635 41.7396 337.417 41.9062 338.312 41.9062C339.667 41.9062 340.844 41.6354 341.844 41.0938C342.844 40.5521 343.615 39.8854 344.156 39.0938C344.719 38.3021 345.01 37.5521 345.031 36.8438L347.406 40.6562C347.073 41.5104 346.615 42.3958 346.031 43.3125C345.469 44.2292 344.75 45.0938 343.875 45.9062C343 46.6979 341.948 47.3542 340.719 47.875C339.49 48.375 338.031 48.625 336.344 48.625C334.198 48.625 332.25 48.1979 330.5 47.3438C328.771 46.4688 327.396 45.2708 326.375 43.75C325.375 42.2083 324.875 40.4583 324.875 38.5C324.875 36.7292 325.208 35.1562 325.875 33.7812C326.542 32.4062 327.521 31.25 328.812 30.3125C330.125 29.3542 331.76 28.6354 333.719 28.1562C335.677 27.6562 337.948 27.4062 340.531 27.4062H345.75ZM369.375 21.4062V48H360.375V14.1875H368.812L369.375 21.4062ZM368.062 29.9062H365.625C365.625 27.4062 365.948 25.1562 366.594 23.1562C367.24 21.1354 368.146 19.4167 369.312 18C370.479 16.5625 371.865 15.4688 373.469 14.7188C375.094 13.9479 376.906 13.5625 378.906 13.5625C380.49 13.5625 381.938 13.7917 383.25 14.25C384.562 14.7083 385.688 15.4375 386.625 16.4375C387.583 17.4375 388.312 18.7604 388.812 20.4062C389.333 22.0521 389.594 24.0625 389.594 26.4375V48H380.531V26.4062C380.531 24.9062 380.323 23.7396 379.906 22.9062C379.49 22.0729 378.875 21.4896 378.062 21.1562C377.271 20.8021 376.292 20.625 375.125 20.625C373.917 20.625 372.865 20.8646 371.969 21.3438C371.094 21.8229 370.365 22.4896 369.781 23.3438C369.219 24.1771 368.792 25.1562 368.5 26.2812C368.208 27.4062 368.062 28.6146 368.062 29.9062ZM412 48.625C409.375 48.625 407.021 48.2083 404.938 47.375C402.854 46.5208 401.083 45.3438 399.625 43.8438C398.188 42.3438 397.083 40.6042 396.312 38.625C395.542 36.625 395.156 34.5 395.156 32.25V31C395.156 28.4375 395.521 26.0938 396.25 23.9688C396.979 21.8438 398.021 20 399.375 18.4375C400.75 16.875 402.417 15.6771 404.375 14.8438C406.333 13.9896 408.542 13.5625 411 13.5625C413.396 13.5625 415.521 13.9583 417.375 14.75C419.229 15.5417 420.781 16.6667 422.031 18.125C423.302 19.5833 424.26 21.3333 424.906 23.375C425.552 25.3958 425.875 27.6458 425.875 30.125V33.875H399V27.875H417.031V27.1875C417.031 25.9375 416.802 24.8229 416.344 23.8438C415.906 22.8438 415.24 22.0521 414.344 21.4688C413.448 20.8854 412.302 20.5938 410.906 20.5938C409.719 20.5938 408.698 20.8542 407.844 21.375C406.99 21.8958 406.292 22.625 405.75 23.5625C405.229 24.5 404.833 25.6042 404.562 26.875C404.312 28.125 404.188 29.5 404.188 31V32.25C404.188 33.6042 404.375 34.8542 404.75 36C405.146 37.1458 405.698 38.1354 406.406 38.9688C407.135 39.8021 408.01 40.4479 409.031 40.9062C410.073 41.3646 411.25 41.5938 412.562 41.5938C414.188 41.5938 415.698 41.2812 417.094 40.6562C418.51 40.0104 419.729 39.0417 420.75 37.75L425.125 42.5C424.417 43.5208 423.448 44.5 422.219 45.4375C421.01 46.375 419.552 47.1458 417.844 47.75C416.135 48.3333 414.188 48.625 412 48.625ZM440 21.5625V48H431V14.1875H439.469L440 21.5625ZM450.188 13.9688L450.031 22.3125C449.594 22.25 449.062 22.1979 448.438 22.1562C447.833 22.0938 447.281 22.0625 446.781 22.0625C445.51 22.0625 444.406 22.2292 443.469 22.5625C442.552 22.875 441.781 23.3438 441.156 23.9688C440.552 24.5938 440.094 25.3542 439.781 26.25C439.49 27.1458 439.323 28.1667 439.281 29.3125L437.469 28.75C437.469 26.5625 437.688 24.5521 438.125 22.7188C438.562 20.8646 439.198 19.25 440.031 17.875C440.885 16.5 441.927 15.4375 443.156 14.6875C444.385 13.9375 445.792 13.5625 447.375 13.5625C447.875 13.5625 448.385 13.6042 448.906 13.6875C449.427 13.75 449.854 13.8438 450.188 13.9688ZM472.719 38.6562C472.719 38.0104 472.531 37.4271 472.156 36.9062C471.781 36.3854 471.083 35.9062 470.062 35.4688C469.062 35.0104 467.615 34.5938 465.719 34.2188C464.01 33.8438 462.417 33.375 460.938 32.8125C459.479 32.2292 458.208 31.5312 457.125 30.7188C456.062 29.9062 455.229 28.9479 454.625 27.8438C454.021 26.7188 453.719 25.4375 453.719 24C453.719 22.5833 454.021 21.25 454.625 20C455.25 18.75 456.135 17.6458 457.281 16.6875C458.448 15.7083 459.865 14.9479 461.531 14.4062C463.219 13.8438 465.115 13.5625 467.219 13.5625C470.156 13.5625 472.677 14.0312 474.781 14.9688C476.906 15.9062 478.531 17.1979 479.656 18.8438C480.802 20.4688 481.375 22.3229 481.375 24.4062H472.375C472.375 23.5312 472.188 22.75 471.812 22.0625C471.458 21.3542 470.896 20.8021 470.125 20.4062C469.375 19.9896 468.396 19.7812 467.188 19.7812C466.188 19.7812 465.323 19.9583 464.594 20.3125C463.865 20.6458 463.302 21.1042 462.906 21.6875C462.531 22.25 462.344 22.875 462.344 23.5625C462.344 24.0833 462.448 24.5521 462.656 24.9688C462.885 25.3646 463.25 25.7292 463.75 26.0625C464.25 26.3958 464.896 26.7083 465.688 27C466.5 27.2708 467.5 27.5208 468.688 27.75C471.125 28.25 473.302 28.9062 475.219 29.7188C477.135 30.5104 478.656 31.5938 479.781 32.9688C480.906 34.3229 481.469 36.1042 481.469 38.3125C481.469 39.8125 481.135 41.1875 480.469 42.4375C479.802 43.6875 478.844 44.7812 477.594 45.7188C476.344 46.6354 474.844 47.3542 473.094 47.875C471.365 48.375 469.417 48.625 467.25 48.625C464.104 48.625 461.438 48.0625 459.25 46.9375C457.083 45.8125 455.438 44.3854 454.312 42.6562C453.208 40.9062 452.656 39.1146 452.656 37.2812H461.188C461.229 38.5104 461.542 39.5 462.125 40.25C462.729 41 463.49 41.5417 464.406 41.875C465.344 42.2083 466.354 42.375 467.438 42.375C468.604 42.375 469.573 42.2188 470.344 41.9062C471.115 41.5729 471.698 41.1354 472.094 40.5938C472.51 40.0312 472.719 39.3854 472.719 38.6562Z" fill="#47C6CF"/>
</svg>
